<svg className="v1" width="100%" viewBox="0 0 261 196" xmlns="http://www.w3.org/2000/svg">
	<path d="M259.242 165.192c-35.37-35.587-92.46-36.339-128.742-1.694-36.281-34.645-93.373-33.893-128.742 1.694L0 166.962l1.758 1.846c35.37 35.587 92.46 36.339 128.742 1.694 36.281 34.645 93.373 33.893 128.742-1.694l1.758-1.783-1.758-1.833zM67.015 190.927c-22.27.052-43.706-8.53-59.857-23.965 33.633-31.947 86.18-31.947 119.813 0-16.176 15.46-37.652 24.043-59.956 23.965zm126.97 0c-22.27.052-43.705-8.53-59.856-23.965 33.635-31.955 86.19-31.955 119.825 0-16.172 15.45-37.636 24.032-59.931 23.965h-.038z" fill="#000"></path> 
	<path d="M130.5 105c50.25-.037 96.466-27.652 120.5-72h-5.713c-23.535 41.413-67.35 66.972-114.806 66.972-47.455 0-91.27-25.56-114.806-66.972H10c24.034 44.348 70.25 71.963 120.5 72z" fill="#000"></path> 
	<path d="M130 62c17.118 0 30.995-13.874 31-30.992C161.005 13.891 147.134.01 130.017 0 112.899-.01 99.014 13.857 99 30.975c.007 17.122 13.878 31.004 31 31.025zm0-56.994a25.994 25.994 0 1 1-25.994 25.969C104.02 16.625 115.65 4.995 130 4.981v.025z" fill="#000"></path> 
</svg>
