<svg className="v3" width="100%" xmlns="http://www.w3.org/2000/svg" viewBox="0 0 143 122"> 
	<path d="M143 7.377V6h-1.559C105.336 6.002 75.835 34.522 75 70.233v2.754c.718 27.2 23.158 48.91 50.66 49.013h1.392v-1.377c.047-22.955-15.616-43.03-38.073-48.8 31.265-5.94 53.904-32.949 54.021-64.446zm-32.702 79.598c8.672 8.57 13.676 20.114 13.971 32.237-25.405-.827-45.771-21.073-46.486-46.211 12.247.347 23.89 5.344 32.515 13.953v.02zM77.783 70.213c.835-33.71 28.344-60.795 62.42-61.46-.878 33.688-28.365 60.744-62.42 61.439v.02zM48.472 25.125C36.039 12.828 19.162 5.945 1.58 6H0v1.377c.115 31.503 22.764 58.514 54.04 64.45-22.462 5.77-38.134 25.84-38.103 48.796V122h1.392c27.508-.102 49.953-21.814 50.671-49.016v-1.377-1.377c-.335-16.974-7.34-33.152-19.528-45.105zM2.832 8.754c16.412.27 32.074 6.842 43.677 18.326C58.177 38.502 64.9 53.962 65.258 70.196 31.201 69.494 3.713 42.44 2.832 8.754zM18.79 119.198c.719-25.137 21.088-45.38 46.496-46.207-.718 25.137-21.088 45.38-46.496 46.207zM104 2.422L102.707 0C89.637 6.847 78.68 17.063 70.993 29.567 63.315 17.062 52.361 6.845 39.293 0L38 2.422C51.324 9.39 62.358 19.981 69.804 32.947L71.007 35l1.203-2.053C79.658 19.987 90.686 9.397 104 2.422z" fill="#ffffff"></path> 
</svg>
