<?xml version="1.0" encoding="utf-8"?>
<!-- Generator: Adobe Illustrator 19.0.0, SVG Export Plug-In . SVG Version: 6.00 Build 0)  -->
<svg version="1.1" id="Layer_1" xmlns="http://www.w3.org/2000/svg" xmlns:xlink="http://www.w3.org/1999/xlink" x="0px" y="0px"
	 viewBox="0 0 500 500" style="enable-background:new 0 0 500 500;" xml:space="preserve">
<style type="text/css">
	.st0{filter:url(#Adobe_OpacityMaskFilter);}
	.st1{opacity:0;mask:url(#SVGID_1_);fill:#FFFFFF;}
	.st2{stroke:#000000;stroke-miterlimit:10;}
</style>
<g>
	<defs>
		<filter id="Adobe_OpacityMaskFilter" filterUnits="userSpaceOnUse" x="93.5" y="55.5" width="314.4" height="389.5">
			<feColorMatrix  type="matrix" values="1 0 0 0 0  0 1 0 0 0  0 0 1 0 0  0 0 0 1 0"/>
		</filter>
	</defs>
	<mask maskUnits="userSpaceOnUse" x="93.5" y="55.5" width="314.4" height="389.5" id="SVGID_1_">
		<g class="st0">
		</g>
	</mask>
	<path class="st1" d="M93.5,445c0-0.1,0-0.2,0-0.2c0-129.7,0-259.5,0-389.2c104.8,0,209.6,0,314.4,0c0,129.8,0,259.6,0,389.5
		C303.2,445,198.3,445,93.5,445z M250.8,63.5c-82.9,0-150.3,67.2-150.3,149.9c-0.1,83.1,67.1,150.5,149.9,150.6
		c83.2,0.1,150.6-67.2,150.6-150.2C401,130.9,333.7,63.5,250.8,63.5z M384.5,393.9c3.7,2.2,6.5,2.2,8.4-0.1
		c2.1-2.4,2.1-7.7,0.1-10.1c-1.9-2.3-4.8-2.3-8.3,0c-1-2-3.1-2.2-5.3-0.9c0.4,1.4,1.1,2.5,1.1,3.7c0.2,3.1,0.2,6.2,0,9.2
		c-0.1,1.4-0.7,2.8-1.1,4.1c2,0,4.4,0,6.9,0C383.2,398.5,384.7,396,384.5,393.9z M141.9,375.5c0.7,1.4,1.7,2.3,1.7,3.3
		c0.1,4.5,0,9,0,13.5c0,1-0.1,2-0.3,3.6c1.3-0.9,2.1-1.4,2.9-1.9c4,2.2,7.2,2,9.4-0.7c2-2.4,2.1-6.9,0.2-9.4
		c-1.8-2.4-4.1-2.6-8.5-0.6c0-2.8,0-5.5,0-8.5C145.3,375.1,143.5,375.3,141.9,375.5z M264,427.5c-1.1-0.9-2.2-1.4-2.2-1.9
		c0-2.5,0.1-5.1,0.6-7.6c0.1-0.6,1.7-1.3,2.6-1.2c0.6,0.1,1.4,1.3,1.6,2.2c0.3,1.4,0.3,3,0.1,4.5c-0.2,1.3-0.7,2.6-1.1,3.8
		c1.9,0,4.3,0,6.2,0c-0.5-1.2-1.1-2.2-1.2-3.3c-0.2-1.6,0-3.2-0.1-4.7c-0.2-4.3-3.4-6-7.1-3.8c-0.6,0.3-1.1,0.7-1.6,1.1
		c-0.9-2.3-3-2.6-6.1-0.8c3.6,0.9,2.1,3.7,2.2,5.8c0.1,2.1,1.1,4.7-2.3,5.7c0.7,0.2,1.2,0.3,1.6,0.3
		C259.2,427.5,261.3,427.5,264,427.5z M314,382c-4.2,0-7.1,2.8-7.1,6.7c0,4.1,2.9,6.8,7.3,6.8c4.4,0,7.2-2.8,7.2-6.9
		C321.4,384.6,318.5,382,314,382z M251.1,421.5c-0.2-4.9-2.2-7-6.3-7c-3.8,0-6.5,2.8-6.6,6.6c-0.1,3.7,2.4,6.6,5.8,6.8
		c4,0.3,6.5-1.3,6.8-4.2c-1.7,0.9-3.3,2.2-5.2,2.6c-1.8,0.3-2.9-1.8-3-4.8C245.5,421.5,248.2,421.5,251.1,421.5z M123.2,382.7
		c0.8,1.1,1.6,2,2.2,3c1.2,2.1,2.2,4.3,3.3,6.4c1.5,3,1,4.6-1.4,6c-1-0.8-1.8-1.6-2.7-2c-0.2-0.1-1,1.1-1.5,1.7c1,0.7,1.9,1.9,2.9,2
		c1.1,0.1,2.6-0.7,3.4-1.5c1.3-1.5,2-3.4,3-5.1c2-3.4,2.7-7.6,6.1-10.4c-2.1,0-3.8,0-6,0c2.8,1.8,2.6,3-0.4,7.1
		c-3-3.7-3.4-5.5-1.4-7.2C128.1,382.7,125.7,382.7,123.2,382.7z M166,389c1.5,0,2.9,0,4.3,0c1.4,0,2.8,0,4.1,0c0-4.9-2.3-7.2-6.7-7
		c-3.8,0.2-6.5,3.6-6.1,7.6c0.4,4,3.8,6.5,8.3,5.9c2.5-0.3,4.4-2.4,4.2-4.1c-1.6,0.8-3.3,2.4-5,2.4C166.8,393.9,166.1,391.6,166,389
		z M221.3,391.3c-1.8,0.9-3.5,2.5-5.1,2.5c-2.5,0-3.1-2.3-3.1-4.9c2.8,0,5.6,0,8.4,0c0-4.5-2-6.8-5.7-6.9c-4-0.1-6.9,2.5-7.1,6.4
		c-0.2,3.8,2.3,6.8,5.8,7.1C218.4,395.8,220.9,394.3,221.3,391.3z M279.5,431c-0.1-0.2-0.1-0.5-0.3-0.6c-0.7-0.6-1.3-1.4-2.1-1.8
		c-0.2-0.1-1.4,1.1-1.3,1.3c0.4,0.9,0.9,2.1,1.7,2.4c1.8,0.7,3.5,0.2,4.6-1.5c1.2-2,2.2-4.1,3.4-6.1c1.8-3.1,2.4-6.8,5.6-9.4
		c-2,0-3.8,0-5.9,0c2.6,1.9,2.5,2.1-0.7,7.7c-1.1-2.2-2.2-4.2-3.2-6.2c0.8-0.5,1.4-0.8,2.4-1.5c-3,0-5.4,0-7.9,0
		c0.8,1.1,1.6,2,2.2,3c1.1,2,2.2,4.1,3.2,6.2C282.9,427.6,282.7,428.7,279.5,431z M369.2,382.7c2.7,1.9,2.5,3.2-0.6,7.5
		c-1-2-2.1-4-3.1-6.1c0.8-0.5,1.3-0.8,2.5-1.5c-3.1,0-5.5,0-7.6,0c1.7,3.1,3.4,6.2,5,9.3c1.7,3.2,1.3,4.4-1.2,6.1
		c-1.2-0.8-2.1-1.5-3.1-1.9c-0.1-0.1-1.2,1.2-1.2,1.7c0.1,1.8,1.6,2.4,3,2.1c1.3-0.4,2.8-1.1,3.6-2.2c1.4-1.9,2.2-4.3,3.4-6.4
		c1.6-2.8,2.2-6.3,5.3-8.6C373.2,382.7,371.5,382.7,369.2,382.7z M236.7,390.8c-0.2,0.1-0.5,0.3-0.7,0.4c0.1,1.4,0.2,2.8,0.3,3.8
		c1.7,0.2,2.9,0.3,4.1,0.4c1,0.1,2,0.2,3,0c2.1-0.4,3.6-1.5,3.8-3.7c0.2-2.1-1-3.5-2.9-4.2c-1.2-0.4-2.4-0.7-3.6-1
		c-1.2-0.3-2.7-0.7-1.9-2.1c0.4-0.8,2.1-1.3,3-1.2c1,0.1,1.9,1.2,2.8,1.9c0.5,0.3,0.9,0.7,1.9,1.3c-0.2-1.9-0.3-3.2-0.4-4.1
		c-2.1-0.1-3.7-0.3-5.4-0.3c-2.5,0-4.1,1.3-4.5,3.5c-0.4,2.2,0.7,3.8,3.2,4.7c1.3,0.4,2.6,0.6,3.8,1c0.5,0.2,1.3,0.9,1.2,1.3
		c0,0.6-0.6,1.4-1.1,1.7c-2.1,1-3.8,0-5.3-1.6C237.7,391.9,237.2,391.4,236.7,390.8z M273.5,395.1c2.2,0.1,4,0.3,5.9,0.4
		c2.8,0.1,4.7-1.3,5-3.4c0.4-2.3-1.1-4.1-4-4.9c-1.1-0.3-2.3-0.4-3.4-0.8c-0.5-0.2-1.2-0.9-1.1-1.4c0.1-0.6,0.8-1.6,1.1-1.6
		c1.5,0.3,3,0.8,4.4,1.4c0.6,0.3,1.1,0.9,1.6,1.4c0.2-0.1,0.4-0.2,0.6-0.3c-0.1-1.3-0.2-2.5-0.3-3.7c-1.1,0.1-1.9,0.3-2.6,0.3
		c-0.9,0-1.8-0.4-2.7-0.4c-2.5,0-4.2,1.3-4.6,3.3c-0.4,2.3,0.7,4,3.3,4.8c1.2,0.4,2.5,0.5,3.6,0.9c0.6,0.2,1.5,1,1.4,1.4
		c-0.2,0.7-0.8,1.5-1.4,1.7c-2.1,0.8-3.7-0.2-5-1.8c-0.5-0.6-1.1-1.1-1.6-1.6c-0.2,0.1-0.3,0.3-0.5,0.4
		C273.4,392.6,273.5,394,273.5,395.1z M210.2,423.3c-0.3,0.1-0.5,0.2-0.8,0.3c0.1,1.4,0.2,2.8,0.2,3.9c2.3,0.2,4.2,0.4,6.1,0.4
		c2.6,0,4.5-1.4,4.8-3.4c0.4-2.3-1-4-3.7-4.8c-1.2-0.3-2.5-0.5-3.6-0.9c-0.5-0.2-1.2-0.9-1.2-1.4c0.1-0.6,0.8-1.6,1.2-1.6
		c1.5,0.3,3,0.8,4.4,1.4c0.6,0.3,1.1,0.9,1.6,1.4c0.2-0.1,0.4-0.2,0.5-0.3c-0.1-1.2-0.2-2.5-0.3-3.5c-2.2-0.1-4-0.3-5.8-0.3
		c-2.2,0-3.6,1.3-4,3.4c-0.4,2.2,0.6,3.8,2.6,4.5c1.4,0.5,2.9,0.7,4.3,1.2c0.6,0.2,1.3,1,1.3,1.5c0,0.5-0.7,1.3-1.3,1.5
		c-2.1,0.8-3.7-0.1-5.1-1.6C211.1,424.5,210.6,423.9,210.2,423.3z M352,382.5c0-1.9,0-3.4,0-5.3c-2.1,2.4-3.9,4.4-5.8,6.5
		c0.6,0.1,1.2,0.3,2.1,0.5c0,2.7-0.2,5.3,0,7.8c0.2,2.7,2.4,4,5,3.3c2.3-0.6,3.5-2.9,2.5-6c-0.5,1.2-0.6,2-1.1,2.7
		c-0.4,0.5-1,0.9-1.6,1.3c-0.4-0.5-1-1-1-1.5c-0.1-2.6,0-5.1,0-7.9c1.2,0,2.1,0.1,3,0c0.4,0,0.7-0.4,1.1-0.7c-0.3-0.3-0.7-0.7-1-0.7
		C354.3,382.4,353.4,382.5,352,382.5z M226.2,416.8c0,2.7-0.3,5.4,0.1,8c0.2,1.2,1.5,2.6,2.7,3.1c1.7,0.7,3.6,0.1,4.5-1.7
		c0.6-1,0.6-2.3,0.9-3.5c-0.3-0.1-0.6-0.2-1-0.2c-0.2,0.6-0.3,1.2-0.6,1.6c-0.5,0.7-1.1,1.2-1.7,1.8c-0.4-0.7-1-1.5-1.1-2.2
		c-0.1-2.3-0.1-4.6-0.1-6.7c1.3-1.1,3.4,0.5,4.3-1.8c-1.6-0.1-2.9-0.2-4.4-0.4c0-1.7,0-3.2,0-5.2c-2.1,2.4-3.9,4.5-5.8,6.6
		C224.6,416.4,225.3,416.6,226.2,416.8z M196.6,384.2c0,2.5,0,4.9,0,7.3c0,2,0.8,3.6,3,3.9c2.4,0.4,4.3-0.8,5-3.1
		c0.2-0.7-0.1-1.5-0.1-2.3c-0.4,0.6-0.8,1.1-1.3,1.7c-0.5,0.6-1.1,1.1-1.6,1.7c-0.4-0.5-1.1-0.9-1.1-1.4c-0.1-2.6-0.1-5.3-0.1-7.6
		c1.5-0.9,3.3,0.5,4.3-1.7c-1.6-0.1-2.9-0.3-4.4-0.4c0-1.7,0-3.2,0-5.2c-2.1,2.4-3.9,4.5-5.8,6.6
		C195.1,383.9,195.8,384.1,196.6,384.2z M178.9,382.9c2.4,1.4,2.5,1.4,2.3,8.3c0,1.2-0.9,2.4-1.5,3.7c2.3,0,5.1,0,7.9,0
		c-0.8-0.7-1.9-0.8-2.4-1.5c-1.3-1.9,0.5-8.4,2-9.6c0.9,0.8,1.6,1.5,2.4,2.2c0.6-0.7,1.6-1.4,1.6-2c0-1.7-1.4-2.2-2.9-1.9
		c-1.3,0.3-2.5,1-3.7,1.5C184.3,381.7,183,381.5,178.9,382.9z M325.6,382.5c-0.2,0.3-0.3,0.5-0.5,0.8c2.9,0,2.5,1.7,2.5,3.3
		c0,3.2,0,6.3,0,9.5c0,0.7-0.2,1.3-0.2,1.6c-1.3-0.4-2.4-0.6-3.4-0.9c-0.2,0.7-0.6,2-0.5,2.1c1,0.5,2.3,1.2,3.3,1
		c2.4-0.5,4.1-2.4,4.2-4.7c0.3-4.3,0.1-8.7,0.1-13.2C329.2,382.1,327.4,382.3,325.6,382.5z M104.5,382.7c1,1.4,1.9,2.6,2.6,3.9
		c1.3,2.4,2.5,4.9,3.9,7.2c0.4,0.6,1,1.1,1.6,1.7c0.4-0.5,1-1,1.3-1.7c1.9-3.7,3.8-7.4,5.6-11.1c-1.4,0-3.2,0-5.2,0
		c2.4,2,2,4.1-0.9,7.5c-3.3-4.7-3.6-5.8-1.3-7.6C109.4,382.7,107,382.7,104.5,382.7z M288,382.7c1,1.4,1.8,2.5,2.5,3.7
		c1.4,2.5,2.7,5.1,4.1,7.7c0.3,0.5,0.8,0.9,1.3,1.4c0.5-0.5,1.1-0.9,1.4-1.5c1.9-3.8,3.8-7.6,5.7-11.2c-1.4,0-3.1,0-5.2,0
		c2.5,1.9,2.1,4.3-0.9,7.5c-3.3-5-3.5-5.8-1.3-7.6C292.9,382.7,290.5,382.7,288,382.7z M257.3,381.9c-2.1,0.3-3.9,0.5-6.2,0.8
		c3.3,2.2,3.3,10,0.5,12.2c2.6,0,5.1,0,7.5,0c-2.3-0.5-1.7-2.3-1.7-3.7C257.3,388.2,257.3,385.3,257.3,381.9z M257.6,378.1
		c0-0.3,0-0.7,0-1c-0.9-0.5-1.7-1.5-2.6-1.5c-0.8,0-1.5,1.1-2.3,1.7c0.7,0.7,1.3,1.9,2.1,2.1C255.7,379.5,256.7,378.6,257.6,378.1z
		 M329.3,374.5c-1.1,1.4-2.2,2.1-2.2,2.9c0,0.6,1.3,1.9,1.9,1.9c0.9,0,2.1-1,2.3-1.7C331.4,377,330.3,376,329.3,374.5z"/>
	<path d="M250.8,63.5c82.9,0,150.2,67.4,150.2,150.3c0,83-67.4,150.2-150.6,150.2c-82.8-0.1-150-67.5-149.9-150.6
		C100.6,130.7,168,63.5,250.8,63.5z M389,213.8c0-76.2-61.8-138.2-137.8-138.3c-76.5-0.1-138.6,61.7-138.7,138
		C112.4,289.9,174.3,352,250.6,352C327,352,389,290.1,389,213.8z"/>
	<path d="M384.5,393.9c0.2,2.1-1.4,4.6,1.9,5.9c-2.5,0-4.9,0-6.9,0c0.4-1.4,1-2.7,1.1-4.1c0.2-3.1,0.2-6.2,0-9.2
		c-0.1-1.2-0.7-2.3-1.1-3.7c2.3-1.3,4.3-1.1,5.3,0.9c3.5-2.2,6.4-2.2,8.3,0c2.1,2.4,2,7.6-0.1,10.1C391,396,388.2,396.1,384.5,393.9
		z M390.1,388.8c0-2.8-1-4.7-2.6-4.7c-1.7-0.1-3,2-3,4.7c0,2.5,1.3,4.6,2.9,4.7C388.9,393.5,390.1,391.5,390.1,388.8z"/>
	<path d="M141.9,375.5c1.6-0.2,3.4-0.4,5.5-0.6c0,3,0,5.7,0,8.5c4.4-2,6.6-1.8,8.5,0.6c1.9,2.5,1.8,7-0.2,9.4
		c-2.2,2.7-5.5,2.9-9.5,0.7c-0.8,0.5-1.6,1-2.9,1.9c0.1-1.6,0.3-2.6,0.3-3.6c0-4.5,0.2-9,0-13.5
		C143.6,377.8,142.6,376.8,141.9,375.5z M153,389.5c-0.2-1.3-0.1-2.3-0.5-2.9c-0.6-1-1.6-1.7-2.4-2.5c-0.8,0.8-2.2,1.6-2.3,2.5
		c-0.3,2-0.1,4.1,0.3,6.1c0.1,0.7,1.2,1.5,1.9,1.6c0.6,0.1,1.6-0.6,1.9-1.2C152.5,391.9,152.7,390.4,153,389.5z"/>
	<path d="M264,427.5c-2.7,0-4.7,0-6.8,0c-0.5,0-0.9-0.1-1.6-0.3c3.3-1,2.4-3.6,2.3-5.7c-0.1-2.1,1.4-4.9-2.2-5.8
		c3.1-1.8,5.3-1.6,6.1,0.8c0.6-0.4,1.1-0.8,1.6-1.1c3.6-2.2,6.9-0.5,7.1,3.8c0.1,1.6-0.1,3.2,0.1,4.7c0.1,1.1,0.8,2.1,1.2,3.3
		c-1.9,0-4.4,0-6.2,0c0.4-1.3,1-2.5,1.1-3.8c0.2-1.5,0.2-3-0.1-4.5c-0.2-0.8-1-2.1-1.6-2.2c-0.8-0.1-2.5,0.6-2.6,1.2
		c-0.5,2.5-0.6,5.1-0.6,7.6C261.8,426.1,262.9,426.6,264,427.5z"/>
	<path d="M314,382c4.5,0,7.4,2.6,7.4,6.6c0,4.1-2.8,6.8-7.2,6.9c-4.4,0-7.3-2.7-7.3-6.8C306.9,384.8,309.8,382,314,382z
		 M311.2,388.5c0.2,1.4,0.1,2.7,0.6,3.8c0.4,0.9,1.5,1.9,2.4,2c0.7,0.1,2.2-1.1,2.3-1.8c0.3-2.5,0.3-5.1,0-7.5
		c-0.1-0.7-1.5-1.8-2.3-1.8c-0.8,0-1.9,1-2.3,1.8C311.4,386.1,311.4,387.4,311.2,388.5z"/>
	<path d="M251.1,421.5c-2.9,0-5.6,0-8.4,0c0,3.1,1.2,5.2,3,4.8c1.8-0.3,3.5-1.7,5.2-2.6c-0.3,2.9-2.9,4.5-6.8,4.2
		c-3.5-0.3-5.9-3.1-5.8-6.8c0.1-3.9,2.8-6.6,6.6-6.6C248.9,414.5,250.9,416.6,251.1,421.5z M242.6,420.5c1.7-0.7,4.1,1.4,4.8-1.5
		c0.4-1.5-0.3-3.4-2.1-3.3C242.6,415.8,242.9,418.3,242.6,420.5z"/>
	<path d="M123.2,382.7c2.5,0,4.9,0,7.4,0c-2,1.7-1.7,3.5,1.4,7.2c3-4.1,3.2-5.3,0.4-7.1c2.2,0,4,0,6,0c-3.3,2.8-4.1,7-6.1,10.4
		c-1,1.7-1.8,3.6-3,5.1c-0.7,0.9-2.3,1.6-3.4,1.5c-1-0.1-1.9-1.3-2.9-2c0.5-0.6,1.3-1.8,1.5-1.7c0.9,0.4,1.7,1.2,2.7,2
		c2.4-1.3,2.9-3,1.4-6c-1.1-2.1-2.2-4.3-3.3-6.4C124.9,384.7,124.1,383.8,123.2,382.7z"/>
	<path d="M166,389c0.1,2.6,0.7,4.9,3.1,4.8c1.7,0,3.4-1.6,5-2.4c0.3,1.7-1.7,3.7-4.2,4.1c-4.5,0.6-7.9-1.8-8.3-5.9
		c-0.4-4.1,2.3-7.4,6.1-7.6c4.4-0.2,6.7,2.1,6.7,7c-1.4,0-2.8,0-4.1,0C168.9,389,167.5,389,166,389z M166,388
		c1.7-0.7,4.1,1.4,4.8-1.5c0.4-1.5-0.3-3.5-2.1-3.4C166,383.3,166.3,385.8,166,388z"/>
	<path d="M221.3,391.3c-0.4,3-2.9,4.5-6.8,4.2c-3.5-0.3-6-3.3-5.8-7.1c0.2-3.9,3.1-6.5,7.1-6.4c3.7,0.1,5.7,2.5,5.7,6.9
		c-2.8,0-5.6,0-8.4,0c0,2.5,0.6,4.9,3.1,4.9C217.8,393.8,219.5,392.2,221.3,391.3z M212.9,388.3c1.9-1,4.5,1.3,4.8-1.9
		c0.1-1-1.3-3.1-2-3.1C213,383.3,213.4,385.8,212.9,388.3z"/>
	<path d="M279.5,431c3.1-2.4,3.4-3.4,1.8-6.6c-1.1-2.1-2.1-4.2-3.2-6.2c-0.6-1-1.4-1.9-2.2-3c2.5,0,4.9,0,7.9,0
		c-1,0.6-1.6,1-2.4,1.5c1,2,2.1,4,3.2,6.2c3.2-5.6,3.2-5.8,0.7-7.7c2.1,0,3.8,0,5.9,0c-3.2,2.6-3.8,6.3-5.6,9.4
		c-1.2,2-2.1,4.1-3.4,6.1c-1.1,1.7-2.8,2.2-4.6,1.5c-0.8-0.3-1.3-1.5-1.7-2.4c-0.1-0.2,1.2-1.4,1.3-1.3c0.8,0.4,1.4,1.2,2.1,1.8
		C279.4,430.6,279.4,430.8,279.5,431z"/>
	<path d="M369.2,382.7c2.2,0,4,0,6.2,0c-3.2,2.4-3.8,5.8-5.3,8.6c-1.2,2.1-2,4.4-3.4,6.4c-0.8,1.1-2.3,1.8-3.6,2.2
		c-1.5,0.4-2.9-0.3-3-2.1c0-0.6,1.1-1.8,1.2-1.7c1,0.5,1.9,1.2,3.1,1.9c2.5-1.7,2.9-2.9,1.2-6.1c-1.6-3.1-3.3-6.2-5-9.3
		c2.1,0,4.5,0,7.6,0c-1.2,0.7-1.7,1-2.5,1.5c1.1,2.1,2.1,4,3.1,6.1C371.7,385.9,371.9,384.6,369.2,382.7z"/>
	<path d="M236.7,390.8c0.5,0.5,1,1.1,1.5,1.6c1.4,1.7,3.1,2.6,5.3,1.6c0.5-0.2,1.1-1.1,1.1-1.7c0-0.4-0.7-1.1-1.2-1.3
		c-1.2-0.4-2.6-0.6-3.8-1c-2.5-0.8-3.5-2.4-3.2-4.7c0.4-2.2,2-3.5,4.5-3.5c1.7,0,3.3,0.2,5.4,0.3c0.1,0.9,0.2,2.2,0.4,4.1
		c-1-0.7-1.4-1-1.9-1.3c-0.9-0.7-1.8-1.7-2.8-1.9c-1-0.1-2.7,0.4-3,1.2c-0.7,1.5,0.8,1.8,1.9,2.1c1.2,0.3,2.4,0.6,3.6,1
		c1.9,0.7,3.1,2.1,2.9,4.2c-0.2,2.2-1.7,3.4-3.8,3.7c-1,0.2-2,0-3,0c-1.2-0.1-2.5-0.2-4.1-0.4c-0.1-1-0.2-2.4-0.3-3.8
		C236.3,391.1,236.5,391,236.7,390.8z"/>
	<path d="M273.5,395.1c-0.1-1.1-0.1-2.5-0.2-3.8c0.2-0.1,0.3-0.3,0.5-0.4c0.5,0.5,1.1,1,1.6,1.6c1.3,1.6,3,2.5,5,1.8
		c0.6-0.2,1.3-1.1,1.4-1.7c0.1-0.3-0.8-1.1-1.4-1.4c-1.2-0.4-2.4-0.5-3.6-0.9c-2.6-0.8-3.7-2.5-3.3-4.8c0.4-2.1,2.1-3.4,4.6-3.3
		c0.9,0,1.8,0.3,2.7,0.4c0.8,0,1.6-0.2,2.6-0.3c0.1,1.2,0.2,2.5,0.3,3.7c-0.2,0.1-0.4,0.2-0.6,0.3c-0.5-0.5-1-1.2-1.6-1.4
		c-1.4-0.6-2.9-1.1-4.4-1.4c-0.3-0.1-1.1,1-1.1,1.6c0,0.4,0.6,1.2,1.1,1.4c1.1,0.4,2.2,0.5,3.4,0.8c2.9,0.8,4.3,2.6,4,4.9
		c-0.3,2.1-2.2,3.5-5,3.4C277.6,395.4,275.7,395.2,273.5,395.1z"/>
	<path d="M210.2,423.3c0.5,0.6,0.9,1.2,1.4,1.7c1.4,1.5,3,2.4,5.1,1.6c0.6-0.2,1.3-1,1.3-1.5c0-0.5-0.8-1.2-1.3-1.5
		c-1.4-0.5-2.9-0.7-4.3-1.2c-2.1-0.8-3.1-2.3-2.6-4.5c0.4-2.1,1.8-3.4,4-3.4c1.8,0,3.7,0.2,5.8,0.3c0.1,1,0.2,2.2,0.3,3.5
		c-0.2,0.1-0.4,0.2-0.5,0.3c-0.5-0.5-1-1.2-1.6-1.4c-1.4-0.6-2.9-1.1-4.4-1.4c-0.3-0.1-1.1,1-1.2,1.6c-0.1,0.4,0.6,1.2,1.2,1.4
		c1.2,0.4,2.4,0.6,3.6,0.9c2.7,0.8,4.1,2.6,3.7,4.8c-0.3,2.1-2.2,3.4-4.8,3.4c-1.9,0-3.8-0.2-6.1-0.4c-0.1-1.1-0.2-2.5-0.2-3.9
		C209.7,423.6,209.9,423.5,210.2,423.3z"/>
	<path d="M352,382.5c1.4,0,2.3-0.1,3.2,0c0.4,0,0.7,0.5,1,0.7c-0.4,0.2-0.7,0.6-1.1,0.7c-0.9,0.1-1.8,0-3,0c0,2.8-0.1,5.3,0,7.9
		c0,0.5,0.7,1,1,1.5c0.5-0.4,1.2-0.8,1.6-1.3c0.4-0.6,0.6-1.4,1.1-2.7c1,3.1-0.2,5.4-2.5,6c-2.7,0.7-4.8-0.6-5-3.3
		c-0.2-2.5,0-5.1,0-7.8c-0.9-0.2-1.5-0.4-2.1-0.5c1.9-2.1,3.7-4.2,5.8-6.5C352,379.1,352,380.6,352,382.5z"/>
	<path d="M226.2,416.8c-0.9-0.2-1.5-0.4-2.1-0.5c1.9-2.2,3.7-4.2,5.8-6.6c0,2,0,3.5,0,5.2c1.5,0.1,2.8,0.2,4.4,0.4
		c-1,2.3-3,0.6-4.3,1.8c0,2.1-0.1,4.4,0.1,6.7c0,0.8,0.7,1.5,1.1,2.2c0.6-0.6,1.2-1.2,1.7-1.8c0.3-0.5,0.4-1.1,0.6-1.6
		c0.3,0.1,0.6,0.2,1,0.2c-0.3,1.2-0.3,2.5-0.9,3.5c-1,1.8-2.9,2.3-4.5,1.7c-1.2-0.5-2.5-1.9-2.7-3.1
		C225.9,422.2,226.2,419.5,226.2,416.8z"/>
	<path d="M196.6,384.2c-0.8-0.2-1.5-0.3-2.1-0.5c1.9-2.2,3.7-4.2,5.8-6.6c0,2,0,3.5,0,5.2c1.5,0.1,2.8,0.3,4.4,0.4
		c-0.9,2.2-2.8,0.8-4.3,1.7c0,2.3-0.1,4.9,0.1,7.6c0,0.5,0.7,1,1.1,1.4c0.5-0.5,1.1-1.1,1.6-1.7c0.5-0.5,0.8-1.1,1.3-1.7
		c0,0.8,0.3,1.6,0.1,2.3c-0.6,2.3-2.5,3.5-5,3.1c-2.2-0.4-3-1.9-3-3.9C196.5,389.1,196.6,386.7,196.6,384.2z"/>
	<path d="M178.9,382.9c4.1-1.4,5.4-1.2,5.8,0.7c1.2-0.5,2.4-1.3,3.7-1.5c1.4-0.3,2.8,0.2,2.9,1.9c0,0.7-1,1.4-1.6,2
		c-0.7-0.7-1.5-1.4-2.4-2.2c-1.6,1.1-3.4,7.7-2,9.6c0.4,0.6,1.6,0.7,2.4,1.5c-2.8,0-5.7,0-7.9,0c0.5-1.2,1.4-2.4,1.5-3.7
		C181.4,384.2,181.3,384.2,178.9,382.9z"/>
	<path d="M325.6,382.5c1.8-0.2,3.6-0.4,5.5-0.6c0,4.6,0.2,8.9-0.1,13.2c-0.2,2.3-1.8,4.2-4.2,4.7c-1,0.2-2.2-0.5-3.3-1
		c-0.2-0.1,0.3-1.4,0.5-2.1c1,0.3,2.1,0.6,3.4,0.9c0-0.2,0.2-0.9,0.2-1.6c0-3.2,0-6.3,0-9.5c0-1.6,0.3-3.3-2.5-3.3
		C325.3,383,325.5,382.8,325.6,382.5z"/>
	<path d="M104.5,382.7c2.5,0,4.9,0,7.5,0c-2.3,1.7-2,2.9,1.3,7.6c2.9-3.4,3.3-5.5,0.9-7.5c2,0,3.8,0,5.2,0
		c-1.9,3.7-3.7,7.4-5.6,11.1c-0.3,0.6-0.9,1.1-1.3,1.7c-0.5-0.6-1.2-1-1.6-1.7c-1.3-2.4-2.6-4.8-3.9-7.2
		C106.4,385.3,105.5,384.1,104.5,382.7z"/>
	<path d="M288,382.7c2.5,0,4.9,0,7.5,0c-2.2,1.8-2,2.6,1.3,7.6c3-3.2,3.4-5.6,0.9-7.5c2.1,0,3.9,0,5.2,0c-1.8,3.7-3.7,7.5-5.7,11.2
		c-0.3,0.6-0.9,1-1.4,1.5c-0.4-0.5-1-0.9-1.3-1.4c-1.4-2.5-2.7-5.2-4.1-7.7C289.9,385.2,289,384.1,288,382.7z"/>
	<path d="M257.3,381.9c0,3.4,0,6.3,0,9.2c0,1.4-0.6,3.2,1.7,3.7c-2.5,0-4.9,0-7.5,0c2.9-2.2,2.8-10-0.5-12.2
		C253.4,382.3,255.2,382.1,257.3,381.9z"/>
	<path class="st2" d="M257.6,378.1c-0.9,0.5-1.9,1.4-2.7,1.3c-0.8-0.1-1.4-1.3-2.1-2.1c0.8-0.6,1.5-1.6,2.3-1.7
		c0.8,0,1.7,0.9,2.6,1.5C257.7,377.4,257.6,377.8,257.6,378.1z"/>
	<path d="M329.3,374.5c1,1.5,2.1,2.4,2,3.1c-0.2,0.8-1.5,1.7-2.3,1.7c-0.6,0-1.9-1.2-1.9-1.9C327.1,376.7,328.2,375.9,329.3,374.5z"
		/>
	<path d="M250.7,201.9c0-1.3,0-2.1,0-2.9c0-19,0-38,0-57c0-5.1,1.3-9.6,5.2-13c5.7-5.2,13.8-4.2,18.2,2.2c2.2,3.1,3.2,6.5,3.1,10.3
		c0,6.3,0,12.7,0,19c0,0.8,0.1,1.6,0.1,2.5c10.9-4.4,18.5,0,20.5,12.1c5-3.4,10-3.5,14.7,0.2c4.5,3.5,5.9,8.5,5.9,13.9
		c0.3,0.1,0.5,0.2,0.5,0.1c9.3-5.8,18.3,1.9,19.6,10.1c0.2,1.2,0.3,2.5,0.3,3.7c0,17.3,0,34.7-0.1,52c0,5.6-0.3,11.2-3.2,16.2
		c-0.8,1.3-1.4,2.7-2.4,3.8c-2.6,2.8-3.3,6.1-3.1,9.9c0.2,4.1,0,8.2,0,12.2c0,4.1-0.6,4.7-4.8,4.7c-5.2,0-10.3,0-15.5,0
		c-17.1,0-34.2,0-51.2,0c-4.3,0-4.8-0.5-4.8-4.7c0-5.1,0-10.2-0.1-15.2c0-0.8-0.5-1.9-1.2-2.4c-12.4-8.3-19-19.8-19.4-34.7
		c-0.3-12.7-3-24.9-8.6-36.4c-1.6-3.2-3.7-6.2-5.1-9.4c-2.7-6.6,0.5-12.5,7.4-14.1c7.4-1.8,13.1,0.8,17.3,6.9
		C246.3,195,248.3,198.2,250.7,201.9z M290.5,281.4c-2.3,0-4.7,0-7,0c-2,0-3.3,1-3.3,3c0,1.9,1.4,2.8,3.2,2.8
		c4.7,0.1,9.5,0.1,14.2,0c1.8,0,3.1-1,3-2.9c-0.1-1.9-1.3-2.8-3.1-2.8C295.2,281.4,292.8,281.4,290.5,281.4z M290.4,275.5
		c1.5,0,3,0.1,4.5,0c1.7-0.1,2.9-1,2.9-2.8c0-1.7-1.1-2.9-2.7-3c-3.1-0.2-6.1-0.1-9.2,0c-1.8,0.1-2.7,1.4-2.7,3
		c0.1,1.7,1.2,2.7,3,2.7C287.6,275.5,289,275.5,290.4,275.5z"/>
	<path d="M191.9,125.6c16.3,0,29.6,13.3,29.5,29.4c-0.1,16.2-13.6,29.5-29.6,29.4c-16.2-0.1-29.3-13.4-29.2-29.6
		C162.7,138.6,175.7,125.6,191.9,125.6z M188.5,162.3c-2-2.2-3.8-4.1-5.7-6c-1.4-1.4-2.9-2-4.6-0.6c-1.4,1.2-1.2,3.1,0.4,4.8
		c2.3,2.4,4.7,4.7,7.1,7.1c2.8,2.8,4.3,2.7,6.6-0.5c4.3-5.9,8.5-11.9,12.8-17.9c0.4-0.6,1.1-1.3,1.1-1.9c0-1.2-0.2-2.9-0.9-3.4
		c-0.8-0.6-2.4-0.2-3.6,0.1c-0.6,0.2-1,1.1-1.4,1.7C196.5,151.1,192.7,156.4,188.5,162.3z"/>
</g>
</svg>
